<?xml version="1.0" standalone="no"?>
<!DOCTYPE svg PUBLIC "-//W3C//DTD SVG 20010904//EN"
 "http://www.w3.org/TR/2001/REC-SVG-20010904/DTD/svg10.dtd">
<svg version="1.0" xmlns="http://www.w3.org/2000/svg"
 width="700.000000pt" height="700.000000pt" viewBox="0 0 700.000000 700.000000"
 preserveAspectRatio="xMidYMid meet">
<metadata>
Created by potrace 1.11, written by Peter Selinger 2001-2013
</metadata>
<g transform="translate(0.000000,700.000000) scale(0.100000,-0.100000)"
fill="#000000" stroke="none">
<path d="M1296 6989 c-163 -24 -358 -106 -493 -208 -234 -177 -385 -431 -427
-721 -9 -66 -12 -656 -10 -2595 1 -1380 4 -2523 8 -2540 25 -112 42 -169 69
-235 30 -73 84 -180 96 -190 4 -3 15 -18 24 -33 74 -116 236 -260 378 -336 77
-41 221 -95 280 -105 19 -3 45 -9 59 -13 14 -4 275 -8 581 -10 617 -4 603 -5
685 62 166 136 109 407 -98 469 -33 10 -164 14 -553 14 -280 1 -519 3 -530 6
-181 43 -312 140 -390 287 -70 134 -65 -71 -63 2686 l3 2488 23 65 c72 199
248 344 446 366 34 4 835 7 1781 7 1888 0 1767 4 1901 -60 69 -32 190 -146
226 -213 27 -50 54 -120 64 -165 4 -16 8 -439 9 -940 l2 -910 23 -49 c104
-218 397 -218 497 1 l27 58 -1 890 c0 809 -3 974 -18 1043 -3 12 -7 32 -10 43
-80 365 -399 708 -745 801 -19 5 -62 17 -95 26 -54 14 -231 16 -1875 18 -998
1 -1841 -2 -1874 -7z"/>
<path d="M1647 5346 c-59 -21 -114 -64 -147 -114 -16 -25 -30 -50 -31 -56 0
-6 -3 -20 -5 -31 -11 -47 -3 -127 17 -169 26 -57 83 -113 139 -140 l45 -21
1450 -2 c1617 -2 1521 -6 1606 67 65 55 94 118 94 205 0 112 -53 198 -153 247
l-47 23 -1465 2 c-1212 2 -1472 0 -1503 -11z"/>
<path d="M1680 4260 c-143 -25 -244 -168 -218 -312 12 -68 47 -128 97 -167 82
-65 -20 -62 1596 -59 l1470 3 41 22 c98 52 149 137 148 248 -1 111 -52 193
-152 242 l-57 28 -1445 0 c-795 1 -1461 -2 -1480 -5z"/>
<path d="M5660 3266 c-130 -29 -244 -80 -339 -152 -25 -19 -399 -387 -829
-817 -805 -803 -814 -812 -842 -917 -12 -48 -68 -235 -78 -260 -7 -19 -6 -17
-21 -70 -16 -57 -26 -91 -50 -165 -11 -33 -24 -76 -29 -95 -6 -19 -40 -134
-77 -255 -74 -244 -79 -298 -37 -382 27 -53 93 -115 140 -131 94 -33 139 -26
477 73 77 22 361 101 445 124 234 62 379 106 413 123 52 26 1612 1585 1660
1658 103 159 147 312 141 493 -10 295 -180 562 -445 697 -61 31 -154 64 -209
75 -66 13 -264 13 -320 1z m276 -561 c90 -41 146 -129 150 -236 2 -51 -2 -76
-20 -115 -24 -50 -100 -143 -110 -134 -89 83 -376 375 -376 384 0 7 12 24 28
37 110 99 208 118 328 64z m-555 -687 l191 -191 -506 -504 c-279 -277 -509
-503 -512 -503 -3 0 -110 -29 -237 -64 -299 -83 -307 -85 -307 -81 0 3 6 24
14 47 8 24 44 142 81 263 l66 220 502 502 c276 276 505 502 510 502 4 1 93
-85 198 -191z"/>
<path d="M1675 3165 c-171 -35 -266 -222 -192 -377 41 -84 83 -122 167 -149
38 -13 184 -15 945 -14 l900 1 50 23 c185 83 224 326 73 455 -79 68 -39 65
-1012 68 -584 2 -897 -1 -931 -7z"/>
</g>
</svg>
